<svg version="1.2" xmlns="http://www.w3.org/2000/svg" viewBox="0 0 16 16" width="16" height="16">
	<style>
		.s0 { fill: #00ff00 } 
	</style>
	<path class="s0" d="m1 3q-0.2 0-0.38 0.08-0.19 0.07-0.33 0.21-0.14 0.14-0.21 0.33-0.08 0.18-0.08 0.38v8q0 0.2 0.08 0.38 0.07 0.19 0.21 0.33 0.14 0.14 0.33 0.21 0.18 0.08 0.38 0.08h4.59q0.09 0 0.19-0.02 0.1-0.02 0.19-0.06 0.09-0.03 0.17-0.09 0.08-0.05 0.15-0.12l0.36-0.36q0.07-0.07 0.16-0.1 0.09-0.04 0.19-0.04 0.1 0 0.19 0.04 0.09 0.03 0.16 0.1l0.36 0.36q0.07 0.07 0.15 0.12 0.08 0.06 0.17 0.09 0.09 0.04 0.19 0.06 0.1 0.02 0.19 0.02h6.59q0.2 0 0.38-0.08 0.19-0.07 0.33-0.21 0.14-0.14 0.21-0.33 0.08-0.18 0.08-0.38v-8q0-0.2-0.08-0.38-0.07-0.19-0.21-0.33-0.14-0.14-0.33-0.21-0.18-0.08-0.38-0.08zm0.5 1h3q0.1 0 0.19 0.04 0.09 0.04 0.16 0.11 0.07 0.07 0.11 0.16 0.04 0.09 0.04 0.19v4q0 0.1-0.04 0.19-0.04 0.09-0.11 0.16-0.07 0.07-0.16 0.11-0.09 0.04-0.19 0.04h-3q-0.1 0-0.19-0.04-0.09-0.04-0.16-0.11-0.07-0.07-0.11-0.16-0.04-0.09-0.04-0.19v-4q0-0.1 0.04-0.19 0.04-0.09 0.11-0.16 0.07-0.07 0.16-0.11 0.09-0.04 0.19-0.04zm5 0h3q0.1 0 0.19 0.04 0.09 0.04 0.16 0.11 0.07 0.07 0.11 0.16 0.04 0.09 0.04 0.19v4q0 0.1-0.04 0.19-0.04 0.09-0.11 0.16-0.07 0.07-0.16 0.11-0.09 0.04-0.19 0.04h-3q-0.1 0-0.19-0.04-0.09-0.04-0.16-0.11-0.07-0.07-0.11-0.16-0.04-0.09-0.04-0.19v-4q0-0.1 0.04-0.19 0.04-0.09 0.11-0.16 0.07-0.07 0.16-0.11 0.09-0.04 0.19-0.04zm4.5 0.5q0-0.1 0.04-0.19 0.04-0.09 0.11-0.16 0.07-0.07 0.16-0.11 0.09-0.04 0.19-0.04h3q0.1 0 0.19 0.04 0.09 0.04 0.16 0.11 0.07 0.07 0.11 0.16 0.04 0.09 0.04 0.19v4q0 0.1-0.04 0.19-0.04 0.09-0.11 0.16-0.07 0.07-0.16 0.11-0.09 0.04-0.19 0.04h-3q-0.1 0-0.19-0.04-0.09-0.04-0.16-0.11-0.07-0.07-0.11-0.16-0.04-0.09-0.04-0.19zm-9 5.5v2h-1v-2zm2 0v2h-1v-2zm2 0v2h-1v-2zm3 0v2h-1v-2zm2 0v2h-1v-2zm2 0v2h-1v-2zm2 0v2h-1v-2z"/>
</svg>